<svg viewBox="0 0 22 32" fill="none" xmlns="http://www.w3.org/2000/svg">
<mask id="mask0_2627_6039" style="mask-type:luminance" maskUnits="userSpaceOnUse" x="0" y="0" width="22" height="32">
<path d="M22 0H0V32H22V0Z" fill="white"/>
</mask>
<g mask="url(#mask0_2627_6039)">
<path fill-rule="evenodd" clip-rule="evenodd" d="M13.084 2.5161C14.2471 2.5161 15.3381 2.67202 16.3482 2.96118C15.3593 0.656338 13.3059 0 11.0208 0C8.7311 0 6.6742 0.658918 5.6875 2.97476C6.6902 2.67542 7.77648 2.5161 8.9356 2.5161H13.084ZM8.66956 4.83008C3.1467 4.83008 0 9.17486 0 14.5344V20.04C0 20.576 0.447716 21 1 21H21C21.5522 21 22 20.576 22 20.04V14.5344C22 9.17486 18.3408 4.83008 12.818 4.83008H8.66956ZM10.9922 14.582C12.9252 14.582 14.4922 13.015 14.4922 11.082C14.4922 9.14904 12.9252 7.58204 10.9922 7.58204C9.0592 7.58204 7.49218 9.14904 7.49218 11.082C7.49218 13.015 9.0592 14.582 10.9922 14.582ZM0 24.236C0 23.7002 0.447716 23.2656 1 23.2656H21C21.5522 23.2656 22 23.7002 22 24.236V30.0586C22 31.1306 21.1046 31.9996 20 31.9996H2C0.89543 31.9996 0 31.1306 0 30.0586V24.236Z" fill="#35D688"/>
</g>
</svg>
