<svg width="12" height="18" viewBox="0 0 12 18" fill="none" xmlns="http://www.w3.org/2000/svg">
<path d="M5.15154 7.30294L5.57581 7.72721L5.15154 8.15147L5.57581 8.57574L5.15154 9L5.57581 9.42426L5.15154 9.84853L5.57581 10.2728L5.15154 10.6971L5.57581 11.1213L5.15154 11.5456L5.57581 11.9698L5.15154 12.3941L5.57581 12.8184L5.15154 13.2426L5.57581 13.6669L5.15154 14.0912L5.57581 14.5154L5.15154 14.9397L5.57581 15.364L5.15154 15.7882L5.57581 16.2125L5.15154 16.6368L5.57581 17.061L6.00007 16.6368L6.42433 17.061L6.8486 16.6368L6.42433 16.2125L6.8486 15.7882L6.42433 15.364L6.8486 14.9397L6.42433 14.5154L6.8486 14.0912L6.42433 13.6669L6.8486 13.2426L6.42433 12.8184L6.8486 12.3941L6.42433 11.9698L6.8486 11.5456L6.42433 11.1213L6.8486 10.6971L6.42433 10.2728L6.8486 9.84853L6.42433 9.42426L6.8486 9L6.42433 8.57574L6.8486 8.15147L6.42433 7.72721L6.8486 7.30294L6.42433 6.87868L6.8486 6.45442L6.42433 6.03015L6.8486 5.60589L6.42433 5.18162L6.8486 4.75736L6.42433 4.3331L6.8486 3.90883L6.42433 3.48457L6.8486 3.0603L6.42433 2.63604L6.8486 2.21177L6.42433 1.78751L6.8486 1.36325L6.42433 0.938982L6.00007 1.36325L5.57581 0.938983L5.15154 1.36325L5.57581 1.78751L5.15154 2.21177L5.57581 2.63604L5.15154 3.0603L5.57581 3.48457L5.15154 3.90883L5.57581 4.3331L5.15154 4.75736L5.57581 5.18162L5.15154 5.60589L5.57581 6.03015L5.15154 6.45442L5.57581 6.87868L5.15154 7.30294Z"/>
</svg>
