<svg  viewBox="0 0 148 24" fill="none" xmlns="http://www.w3.org/2000/svg">
<g clip-path="url(#clip0_2510_1924)">
<path fill-rule="evenodd" clip-rule="evenodd" d="M4.52987 12.5431C2.13634 13.7638 0.697354 15.4227 0.706428 17.2181C0.715502 19.0135 2.17118 20.6577 4.57693 21.8542C6.97694 23.0477 10.2948 23.7795 13.9607 23.761C17.6267 23.7424 20.9369 22.977 23.3248 21.7591C25.7183 20.5384 27.1573 18.8795 27.1482 17.0841C27.1391 15.2887 25.6835 13.6445 23.2777 12.448C20.8777 11.2545 17.5599 10.5227 13.8939 10.5412C10.228 10.5598 6.91769 11.3252 4.52987 12.5431ZM4.44066 12.3676C6.86115 11.1331 10.2029 10.3631 13.8929 10.3444C17.5829 10.3257 20.9323 11.0618 23.3651 12.2717C25.7923 13.4788 27.3351 15.1736 27.3448 17.0831C27.3544 18.9926 25.8288 20.703 23.414 21.9346C20.9935 23.1691 17.6517 23.9391 13.9617 23.9578C10.2717 23.9765 6.92235 23.2404 4.48949 22.0305C2.06237 20.8234 0.5195 19.1286 0.509849 17.2191C0.500199 15.3096 2.02586 13.5992 4.44066 12.3676Z" fill="#2CFF8E"/>
<path fill-rule="evenodd" clip-rule="evenodd" d="M6.15001 14.4367C4.19198 15.4325 3.17 16.7088 3.17636 17.9675C3.18272 19.2261 4.21756 20.4921 6.18555 21.4679C8.12448 22.4294 10.8338 23.0307 13.8498 23.0154C16.8659 23.0001 19.5689 22.3714 21.4981 21.3903C23.4561 20.3946 24.4781 19.1182 24.4717 17.8595C24.4654 16.6009 23.4305 15.335 21.4625 14.3591C19.5236 13.3976 16.8143 12.7964 13.7983 12.8117C10.7822 12.8269 8.07913 13.4556 6.15001 14.4367ZM5.70498 13.559C7.7972 12.495 10.6573 11.8432 13.7933 11.8273C16.9292 11.8114 19.7958 12.4342 21.8987 13.4769C23.9725 14.5053 25.4454 16.0237 25.4546 17.8546C25.4639 19.6854 24.0064 21.2187 21.9431 22.268C19.8509 23.332 16.9907 23.9838 13.8548 23.9997C10.7189 24.0156 7.85228 23.3928 5.74941 22.3501C3.6756 21.3217 2.20272 19.8033 2.19347 17.9725C2.18422 16.1416 3.64167 14.6083 5.70498 13.559Z" fill="#2CFF8E"/>
<path fill-rule="evenodd" clip-rule="evenodd" d="M7.25751 16.2881C5.56196 17.0593 4.75627 18.0166 4.75992 18.8885C4.76357 19.7605 5.57724 20.711 7.27917 21.4679C8.93454 22.2042 11.2536 22.6668 13.8391 22.656C16.4247 22.6451 18.7398 22.163 20.3889 21.4129C22.0845 20.6417 22.8901 19.6844 22.8865 18.8125C22.8829 17.9405 22.0692 16.99 20.3673 16.2331C18.7119 15.4968 16.3928 15.0342 13.8073 15.045C11.2217 15.0559 8.90666 15.538 7.25751 16.2881ZM6.85105 15.3918C8.65353 14.572 11.1118 14.072 13.8032 14.0607C16.4946 14.0494 18.9569 14.5287 20.7662 15.3334C22.5289 16.1174 23.8631 17.3068 23.8694 18.8084C23.8757 20.3099 22.5515 21.5104 20.7954 22.3092C18.9929 23.129 16.5346 23.629 13.8432 23.6403C11.1519 23.6516 8.6895 23.1723 6.88023 22.3676C5.11752 21.5836 3.7833 20.3942 3.77702 18.8926C3.77074 17.3911 5.09496 16.1906 6.85105 15.3918Z" fill="#2CFF8E"/>
<path d="M13.8087 15.3562C17.9343 15.3367 21.263 11.9716 21.2435 7.8399C21.2241 3.70825 17.8639 0.374668 13.7383 0.394138C9.61276 0.413608 6.28409 3.77876 6.30353 7.91041C6.32297 12.0421 9.68316 15.3756 13.8087 15.3562Z" fill="#2CFF8E"/>
<path d="M48.5087 15.0586C48.5087 16.0941 48.147 16.9594 47.4235 17.6546C46.7149 18.3351 45.8438 18.6753 44.8102 18.6753H36.018V11.4641H38.6756V16.0127H44.8102C45.4894 16.0127 45.829 15.6947 45.829 15.0586V10.865C45.829 10.2289 45.4894 9.91086 44.8102 9.91086H36.018V7.24824H44.8102C45.8438 7.24824 46.7149 7.59586 47.4235 8.2911C48.147 8.97155 48.5087 9.8295 48.5087 10.865V15.0586Z" fill="#2CFF8E"/>
<path d="M63.5963 18.6753H60.9387V15.0364H53.9404V12.3738H60.9387V10.7762C60.9387 10.1993 60.7467 9.91086 60.3629 9.91086H52.833C52.4639 9.91086 52.2794 10.1993 52.2794 10.7762V18.6753H49.6218V10.7762C49.6218 9.81471 49.9171 8.98634 50.5076 8.2911C51.113 7.59586 51.8881 7.24824 52.833 7.24824H60.3629C61.3226 7.24824 62.0977 7.59586 62.6883 8.2911C63.2936 8.98634 63.5963 9.81471 63.5963 10.7762V18.6753Z" fill="#2CFF8E"/>
<path d="M78.0727 18.6753H74.4407L68.749 12.2628H75.5923C76.0795 12.2628 76.3231 11.8708 76.3231 11.0869C76.3231 10.3029 76.0795 9.91086 75.5923 9.91086H67.3538V18.6753H64.6962V7.24824H75.7473C76.7661 7.24824 77.5707 7.64763 78.1613 8.44642C78.7076 9.17124 78.9807 10.0514 78.9807 11.0869C78.9807 12.1223 78.7076 13.0025 78.1613 13.7273C77.5707 14.5261 76.7661 14.9255 75.7473 14.9255H74.7286L78.0727 18.6753Z" fill="#2CFF8E"/>
<path d="M93.4715 18.6753H89.8395L84.1478 12.9729L89.4408 7.24824H93.0729L87.7355 12.9729L93.4715 18.6753ZM82.7526 18.6753H80.095V7.24824H82.7526V18.6753Z" fill="#2CFF8E"/>
<path d="M105.32 18.6753H93.915V7.24824H96.5726V16.0127H105.32V18.6753Z" fill="#2CFF8E"/>
<path d="M120.412 18.6753H117.754V15.0364H110.756V12.3738H117.754V10.7762C117.754 10.1993 117.562 9.91086 117.178 9.91086H109.649C109.279 9.91086 109.095 10.1993 109.095 10.7762V18.6753H106.437V10.7762C106.437 9.81471 106.733 8.98634 107.323 8.2911C107.929 7.59586 108.704 7.24824 109.649 7.24824H117.178C118.138 7.24824 118.913 7.59586 119.504 8.2911C120.109 8.98634 120.412 9.81471 120.412 10.7762V18.6753Z" fill="#2CFF8E"/>
<path d="M134.888 18.6753H131.256L125.565 12.9729L130.858 7.24824H134.49L129.152 12.9729L134.888 18.6753ZM124.169 18.6753H121.512V7.24824H124.169V18.6753Z" fill="#2CFF8E"/>
<path d="M147.49 9.91086H137.989V11.6194H146.87V14.282H137.989V16.0127H147.468V18.6753H135.332V7.24824H147.49V9.91086Z" fill="#2CFF8E"/>
</g>
<defs>
<clipPath id="clip0_2510_1924">
<rect width="148" height="24" fill="white"/>
</clipPath>
</defs>
</svg>
