<svg width="16" height="16" viewBox="0 0 16 16" fill="none" xmlns="http://www.w3.org/2000/svg">
<path d="M9.33342 2.66667H10.6667V3.33334H11.3334V4.00001H12.0001V4.66667H12.6667V5.33334H13.3334V6.00001H14.0001V6.66667H14.6667V7.33334H15.3334V8.66667H14.6667V9.33334H14.0001V10H13.3334V10.6667H12.6667V11.3333H12.0001V12H11.3334V12.6667H10.6667V13.3333H9.33342V12H10.0001V11.3333H10.6667V10.6667H11.3334V10H12.0001V9.33334H12.6667V8.66667H4.66675V7.33334H12.6667V6.66667H12.0001V6.00001H11.3334V5.33334H10.6667V4.66667H10.0001V4.00001H9.33342V2.66667Z" fill="#1A9A56"/>
<path d="M2.00008 1.33333H0.666748V14.6667H2.00008V1.33333Z" fill="#1A9A56"/>
</svg>
