<svg width="28" height="24" viewBox="0 0 28 24" fill="none" xmlns="http://www.w3.org/2000/svg">
<g clip-path="url(#clip0_2513_2048)">
<path fill-rule="evenodd" clip-rule="evenodd" d="M4.60259 12.5431C2.20906 13.7638 0.770074 15.4227 0.779147 17.2181C0.788221 19.0135 2.2439 20.6577 4.64965 21.8542C7.04966 23.0477 10.3675 23.7795 14.0334 23.761C17.6994 23.7424 21.0097 22.977 23.3975 21.7591C25.791 20.5384 27.23 18.8795 27.2209 17.0841C27.2119 15.2887 25.7562 13.6445 23.3504 12.448C20.9504 11.2545 17.6326 10.5227 13.9666 10.5412C10.3007 10.5598 6.99041 11.3252 4.60259 12.5431ZM4.51338 12.3676C6.93387 11.1331 10.2756 10.3631 13.9656 10.3444C17.6557 10.3257 21.005 11.0618 23.4379 12.2717C25.865 13.4788 27.4079 15.1736 27.4175 17.0831C27.4272 18.9926 25.9015 20.703 23.4867 21.9346C21.0662 23.1691 17.7245 23.9391 14.0344 23.9578C10.3444 23.9765 6.99506 23.2404 4.56221 22.0305C2.13509 20.8234 0.59222 19.1286 0.582569 17.2191C0.572918 15.3096 2.09858 13.5992 4.51338 12.3676Z" fill="#2CFF8E"/>
<path fill-rule="evenodd" clip-rule="evenodd" d="M6.22273 14.4367C4.2647 15.4325 3.24272 16.7088 3.24908 17.9675C3.25544 19.2261 4.29028 20.4921 6.25827 21.4679C8.1972 22.4294 10.9065 23.0306 13.9225 23.0154C16.9386 23.0001 19.6417 22.3714 21.5708 21.3903C23.5288 20.3945 24.5508 19.1182 24.5444 17.8595C24.5381 16.6009 23.5032 15.335 21.5352 14.3591C19.5963 13.3976 16.887 12.7964 13.871 12.8117C10.8549 12.8269 8.15184 13.4556 6.22273 14.4367ZM5.7777 13.559C7.86992 12.495 10.7301 11.8432 13.866 11.8273C17.0019 11.8114 19.8685 12.4342 21.9714 13.4769C24.0452 14.5053 25.5181 16.0237 25.5273 17.8546C25.5366 19.6854 24.0791 21.2187 22.0158 22.268C19.9236 23.332 17.0634 23.9838 13.9275 23.9997C10.7916 24.0156 7.925 23.3928 5.82213 22.3501C3.74832 21.3217 2.27544 19.8033 2.26619 17.9725C2.25694 16.1416 3.71439 14.6083 5.7777 13.559Z" fill="#2CFF8E"/>
<path fill-rule="evenodd" clip-rule="evenodd" d="M7.33022 16.2881C5.63468 17.0593 4.82899 18.0166 4.83264 18.8885C4.83629 19.7605 5.64996 20.711 7.35189 21.4679C9.00726 22.2042 11.3263 22.6668 13.9118 22.656C16.4974 22.6451 18.8125 22.163 20.4616 21.4129C22.1572 20.6417 22.9629 19.6844 22.9592 18.8125C22.9556 17.9405 22.1419 16.99 20.44 16.2331C18.7846 15.4968 16.4656 15.0342 13.88 15.045C11.2945 15.0559 8.97938 15.538 7.33022 16.2881ZM6.92377 15.3918C8.72625 14.572 11.1845 14.072 13.8759 14.0607C16.5673 14.0494 19.0296 14.5287 20.8389 15.3334C22.6016 16.1174 23.9358 17.3068 23.9421 18.8084C23.9484 20.3099 22.6242 21.5104 20.8681 22.3092C19.0656 23.129 16.6074 23.629 13.916 23.6403C11.2246 23.6516 8.76222 23.1723 6.95295 22.3676C5.19024 21.5836 3.85602 20.3942 3.84974 18.8926C3.84346 17.3911 5.16768 16.1906 6.92377 15.3918Z" fill="#2CFF8E"/>
<path d="M13.8814 15.3562C18.007 15.3367 21.3357 11.9716 21.3162 7.8399C21.2968 3.70825 17.9366 0.374668 13.811 0.394138C9.68548 0.413608 6.35681 3.77876 6.37625 7.91041C6.39569 12.0421 9.75588 15.3756 13.8814 15.3562Z" fill="#2CFF8E"/>
</g>
<defs>
<clipPath id="clip0_2513_2048">
<rect width="28" height="24" fill="white"/>
</clipPath>
</defs>
</svg>
