<svg viewBox="0 0 32 28" fill="none" xmlns="http://www.w3.org/2000/svg">
<path fill-rule="evenodd" clip-rule="evenodd" d="M12.7703 20.736C10.9389 23.5423 7.87006 27.0936 3.78653 27.0936C1.85616 27.0936 0 26.2989 0 22.8469C0 14.0555 12.0031 0.446289 23.14 0.446289C29.4756 0.446289 32 4.84199 32 9.83371C32 16.241 27.8422 23.5671 23.7092 23.5671C22.3975 23.5671 21.754 22.8469 21.754 21.7045C21.754 21.4065 21.8035 21.0837 21.9025 20.736C20.4919 23.1449 17.7695 25.38 15.2204 25.38C13.3643 25.38 12.4238 24.2128 12.4238 22.5737C12.4238 21.9777 12.5476 21.3568 12.7703 20.736ZM27.8182 9.66014C27.8182 11.1147 26.96 11.842 26 11.842C25.0255 11.842 24.1818 11.1147 24.1818 9.66014C24.1818 8.2056 25.0255 7.47835 26 7.47835C26.96 7.47835 27.8182 8.2056 27.8182 9.66014ZM22.3637 9.66018C22.3637 11.1147 21.5055 11.842 20.5455 11.842C19.5709 11.842 18.7273 11.1147 18.7273 9.66018C18.7273 8.2056 19.5709 7.47835 20.5455 7.47835C21.5055 7.47835 22.3637 8.2056 22.3637 9.66018Z" fill="#35D688"/>
</svg>
