<svg width="20" height="20" viewBox="0 0 20 20" fill="none" xmlns="http://www.w3.org/2000/svg">
<g clip-path="url(#clip0_4112_6278)">
<path d="M5.62671 9.33325V10.8333H14.3734V9.33325H5.62671Z" />
<path d="M10.75 5.70996H9.25V14.4567H10.75V5.70996Z" />
<path d="M18.3333 7.50004V5.83337H17.4999V4.16671H16.6666V3.33337H15.8333V2.50004H14.1666V1.66671H12.4999V0.833374H7.49992V1.66671H5.83325V2.50004H4.16658V3.33337H3.33325V4.16671H2.49992V5.83337H1.66659V7.50004H0.833252V12.5H1.66659V14.1667H2.49992V15.8334H3.33325V16.6667H4.16658V17.5H5.83325V18.3334H7.49992V19.1667H12.4999V18.3334H14.1666V17.5H15.8333V16.6667H16.6666V15.8334H17.4999V14.1667H18.3333V12.5H19.1666V7.50004H18.3333ZM17.4999 12.5H16.6666V14.1667H15.8333V15H14.9999V15.8334H14.1666V16.6667H12.4999V17.5H7.49992V16.6667H5.83325V15.8334H4.99992V15H4.16658V14.1667H3.33325V12.5H2.49992V7.50004H3.33325V5.83337H4.16658V5.00004H4.99992V4.16671H5.83325V3.33337H7.49992V2.50004H12.4999V3.33337H14.1666V4.16671H14.9999V5.00004H15.8333V5.83337H16.6666V7.50004H17.4999V12.5Z" />
</g>
<defs>
<clipPath id="clip0_4112_6278">
<rect width="20" height="20" fill="white"/>
</clipPath>
</defs>
</svg>
