<svg width="16" height="16" viewBox="0 0 16 16" fill="none" xmlns="http://www.w3.org/2000/svg">
<path d="M13.3333 6.00017V5.3335H13.9999V4.00017H14.6666V2.66683H13.9999V1.3335H13.3333V0.666832H9.99992V1.3335H9.33325V2.66683H8.66658V4.00017H7.99992V4.66683H7.33325V5.3335H6.66658V6.00017H5.99992V5.3335H2.66659V6.00017H1.99992V7.3335H1.33325V8.66683H1.99992V10.0002H2.66659V10.6668H5.99992V10.0002H6.66658V10.6668H7.33325V11.3335H7.99992V12.0002H8.66658V13.3335H9.33325V14.6668H9.99992V15.3335H13.3333V14.6668H13.9999V13.3335H14.6666V12.0002H13.9999V10.6668H13.3333V10.0002H9.99992V10.6668H8.66658V10.0002H7.99992V9.3335H7.33325V6.66683H7.99992V6.00017H8.66658V5.3335H9.99992V6.00017H13.3333ZM5.99992 8.66683H5.33325V9.3335H3.33325V8.66683H2.66659V7.3335H3.33325V6.66683H5.33325V7.3335H5.99992V8.66683ZM9.99992 12.0002H10.6666V11.3335H12.6666V12.0002H13.3333V13.3335H12.6666V14.0002H10.6666V13.3335H9.99992V12.0002ZM9.99992 2.66683H10.6666V2.00017H12.6666V2.66683H13.3333V4.00017H12.6666V4.66683H10.6666V4.00017H9.99992V2.66683Z" fill="#1A9A56"/>
</svg>
