<svg viewBox="0 0 32 32" fill="none" xmlns="http://www.w3.org/2000/svg">
<path d="M16.2454 30.7914C16.5843 30.7914 16.859 31.062 16.859 31.3957C16.859 31.7295 16.5843 32 16.2454 32C15.9066 32 15.6318 31.7295 15.6318 31.3957C15.6318 31.062 15.9066 30.7914 16.2454 30.7914ZM15.5788 1.92469C15.8787 1.94934 16.1209 2.17559 16.1614 2.46892L16.8912 7.74908C17.1363 9.49352 19.2492 10.2494 20.5534 9.06395L27.8653 2.43683C28.0417 2.27697 28.3164 2.28805 28.4789 2.46158C28.6279 2.62078 28.6325 2.86452 28.4893 3.02892L22.1133 10.3529C20.9395 11.6988 21.8055 13.8004 23.5949 13.9505L29.2207 14.4906C29.5009 14.5174 29.7059 14.7627 29.6785 15.0384C29.656 15.2657 29.4801 15.4494 29.2508 15.485L23.3392 16.4042C21.6229 16.6371 20.8456 18.6611 21.962 19.976L24.0402 22.4157C24.2076 22.6122 24.1814 22.9051 23.9816 23.0698C23.8124 23.2094 23.5673 23.2148 23.3918 23.0828L20.8299 21.1562C19.4474 20.1209 17.4547 21.0008 17.3085 22.7143L16.744 29.3967C16.7206 29.6727 16.4743 29.8778 16.1938 29.8549C15.9556 29.8354 15.7632 29.6559 15.731 29.4229L14.8357 22.968C14.5958 21.2235 12.4829 20.4677 11.1735 21.6531L3.39507 28.706C3.23406 28.8519 2.98324 28.8418 2.83485 28.6835C2.69871 28.5381 2.69458 28.3156 2.82522 28.1655L9.61373 20.3642C10.7875 19.0183 9.92669 16.9166 8.13729 16.7666L2.51017 16.2264C2.22998 16.1995 2.025 15.9542 2.05234 15.6786C2.07489 15.4512 2.25073 15.2676 2.48005 15.2319L8.38771 14.3129C10.1041 14.0799 10.8866 12.056 9.77024 10.7411L8.35551 9.08034C8.14788 8.83663 8.18041 8.47345 8.42818 8.26921C8.63813 8.09607 8.94212 8.08945 9.15968 8.2532L10.897 9.56088C12.2795 10.5962 14.2723 9.71622 14.4184 8.00281L14.8857 2.50142C14.9152 2.15385 15.2255 1.89564 15.5788 1.92469ZM0.613569 15.061C0.952434 15.061 1.22714 15.3316 1.22714 15.6653C1.22714 15.9991 0.952434 16.2696 0.613569 16.2696C0.274704 16.2696 0 15.9991 0 15.6653C0 15.3316 0.274704 15.061 0.613569 15.061ZM31.3864 14.4474C31.7253 14.4474 32 14.718 32 15.0517C32 15.3855 31.7253 15.656 31.3864 15.656C31.0476 15.656 30.7728 15.3855 30.7728 15.0517C30.7728 14.718 31.0476 14.4474 31.3864 14.4474ZM15.4903 0C15.8291 0 16.1038 0.270554 16.1038 0.6043C16.1038 0.938048 15.8291 1.2086 15.4903 1.2086C15.1514 1.2086 14.8767 0.938048 14.8767 0.6043C14.8767 0.270554 15.1514 0 15.4903 0Z" fill="#35D688"/>
</svg>
