<svg viewBox="0 0 24 24" fill="none" xmlns="http://www.w3.org/2000/svg">
<path d="M22.5 13V13.4545H22.0455V13.9091H21.5909V14.3636H21.1364V14.8182H20.6818V15.2727H20.2273V15.7273H19.7727V16.1818H19.3182V16.6364H18.8636V17.0909H18.4091V17.5455H17.9545V18H17.0455V17.5455H16.5909V17.0909H16.1364V16.6364H15.6818V16.1818H15.2273V15.7273H14.7727V15.2727H14.3182V14.8182H13.8636V14.3636H13.4091V13.9091H12.9545V13.4545H12.5V13H12.9545V12.5455H13.4091V13H13.8636V13.4545H14.3182V13.9091H14.7727V14.3636H15.2273V14.8182H15.6818V15.2727H16.1364V15.7273H16.5909V16.1818H17.0455V6H17.9545V16.1818H18.4091V15.7273H18.8636V15.2727H19.3182V14.8182H19.7727V14.3636H20.2273V13.9091H20.6818V13.4545H21.1364V13H21.5909V12.5455H22.0455V13H22.5Z" />
<path d="M1.5 11V10.5455H1.95455V10.0909H2.40909V9.63636H2.86364V9.18182H3.31818V8.72727H3.77273V8.27273H4.22727V7.81818H4.68182V7.36364H5.13636V6.90909H5.59091V6.45455H6.04545V6H6.95455V6.45455H7.40909V6.90909H7.86364V7.36364H8.31818V7.81818H8.77273V8.27273H9.22727V8.72727H9.68182V9.18182H10.1364V9.63636H10.5909V10.0909H11.0455V10.5455H11.5V11H11.0455V11.4545H10.5909V11H10.1364V10.5455H9.68182V10.0909H9.22727V9.63636H8.77273V9.18182H8.31818V8.72727H7.86364V8.27273H7.40909V7.81818H6.95455V18H6.04545V7.81818H5.59091V8.27273H5.13636V8.72727H4.68182V9.18182H4.22727V9.63636H3.77273V10.0909H3.31818V10.5455H2.86364V11H2.40909V11.4545H1.95455V11H1.5Z"/>
</svg>
