<svg viewBox="0 0 24 24" fill="none" xmlns="http://www.w3.org/2000/svg">
<g clip-path="url(#clip0_1198_2549)">
<path d="M22.097 2.30005H22.7457V2.9487H22.097V2.30005Z" fill="#1A9A56"/>
<path d="M20.1511 2.9487H20.7997V3.59735H20.1511V2.9487Z" fill="#1A9A56"/>
<path d="M20.7997 2.9487H21.4484V3.59735H20.7997V2.9487Z" fill="#1A9A56"/>
<path d="M21.4484 2.9487H22.097V3.59735H21.4484V2.9487Z" fill="#1A9A56"/>
<path d="M22.097 2.9487H22.7457V3.59735H22.097V2.9487Z" fill="#1A9A56"/>
<path d="M22.7457 2.9487H23.3943V3.59735H22.7457V2.9487Z" fill="#1A9A56"/>
<path d="M23.3943 2.9487H24.043V3.59735H23.3943V2.9487Z" fill="#1A9A56"/>
<path d="M18.8538 3.59735H19.5024V4.24599H18.8538V3.59735Z" fill="#1A9A56"/>
<path d="M19.5024 3.59735L20.1511 3.59735V4.24599H19.5024V3.59735Z" fill="#1A9A56"/>
<path d="M20.1511 3.59735H20.7997V4.24599H20.1511V3.59735Z" fill="#1A9A56"/>
<path d="M20.7997 3.59735H21.4484V4.24599H20.7997V3.59735Z" fill="#1A9A56"/>
<path d="M21.4484 3.59735H22.097V4.24599H21.4484V3.59735Z" fill="#1A9A56"/>
<path d="M22.097 3.59735H22.7457V4.24599H22.097V3.59735Z" fill="#1A9A56"/>
<path d="M22.7457 3.59735H23.3943V4.24599H22.7457V3.59735Z" fill="#1A9A56"/>
<path d="M23.3943 3.59735H24.043V4.24599H23.3943V3.59735Z" fill="#1A9A56"/>
<path d="M16.9078 4.24599H17.5565V4.89464H16.9078V4.24599Z" fill="#1A9A56"/>
<path d="M17.5565 4.24599H18.2051V4.89464H17.5565V4.24599Z" fill="#1A9A56"/>
<path d="M18.2051 4.24599H18.8538L18.8538 4.89464H18.2051V4.24599Z" fill="#1A9A56"/>
<path d="M18.8538 4.24599H19.5024V4.89464H18.8538L18.8538 4.24599Z" fill="#1A9A56"/>
<path d="M19.5024 4.24599H20.1511V4.89464H19.5024V4.24599Z" fill="#1A9A56"/>
<path d="M20.1511 4.24599H20.7997V4.89464H20.1511V4.24599Z" fill="#1A9A56"/>
<path d="M20.7997 4.24599H21.4484V4.89464H20.7997V4.24599Z" fill="#1A9A56"/>
<path d="M21.4484 4.24599H22.097V4.89464H21.4484V4.24599Z" fill="#1A9A56"/>
<path d="M22.097 4.24599H22.7457V4.89464H22.097V4.24599Z" fill="#1A9A56"/>
<path d="M22.7457 4.24599H23.3943V4.89464H22.7457V4.24599Z" fill="#1A9A56"/>
<path d="M23.3943 4.24599H24.043V4.89464H23.3943V4.24599Z" fill="#1A9A56"/>
<path d="M15.6105 4.89464H16.2592V5.54329H15.6105V4.89464Z" fill="#1A9A56"/>
<path d="M16.2592 4.89464H16.9078L16.9078 5.54329H16.2592V4.89464Z" fill="#1A9A56"/>
<path d="M16.9078 4.89464H17.5565V5.54329H16.9078L16.9078 4.89464Z" fill="#1A9A56"/>
<path d="M17.5565 4.89464H18.2051V5.54329H17.5565V4.89464Z" fill="#1A9A56"/>
<path d="M18.2051 4.89464H18.8538V5.54329H18.2051V4.89464Z" fill="#1A9A56"/>
<path d="M18.8538 4.89464H19.5024V5.54329H18.8538V4.89464Z" fill="#1A9A56"/>
<path d="M19.5024 4.89464H20.1511V5.54329H19.5024V4.89464Z" fill="#1A9A56"/>
<path d="M20.1511 4.89464H20.7997V5.54329H20.1511V4.89464Z" fill="#1A9A56"/>
<path d="M20.7997 4.89464H21.4484V5.54329H20.7997V4.89464Z" fill="#1A9A56"/>
<path d="M21.4484 4.89464H22.097V5.54329H21.4484V4.89464Z" fill="#1A9A56"/>
<path d="M22.097 4.89464H22.7457V5.54329H22.097V4.89464Z" fill="#1A9A56"/>
<path d="M22.7457 4.89464H23.3943V5.54329H22.7457V4.89464Z" fill="#1A9A56"/>
<path d="M23.3943 4.89464H24.043V5.54329H23.3943V4.89464Z" fill="#1A9A56"/>
<path d="M13.6646 5.54329H14.3132V6.19194H13.6646V5.54329Z" fill="#1A9A56"/>
<path d="M14.3132 5.54329H14.9619V6.19194H14.3132V5.54329Z" fill="#1A9A56"/>
<path d="M14.9619 5.54329H15.6105L15.6105 6.19194H14.9619V5.54329Z" fill="#1A9A56"/>
<path d="M15.6105 5.54329H16.2592V6.19194H15.6105L15.6105 5.54329Z" fill="#1A9A56"/>
<path d="M16.2592 5.54329H16.9078V6.19194H16.2592V5.54329Z" fill="#1A9A56"/>
<path d="M16.9078 5.54329H17.5565V6.19194H16.9078V5.54329Z" fill="#1A9A56"/>
<path d="M17.5565 5.54329H18.2051V6.19194H17.5565V5.54329Z" fill="#1A9A56"/>
<path d="M18.2051 5.54329H18.8538V6.19194H18.2051V5.54329Z" fill="#1A9A56"/>
<path d="M18.8538 5.54329H19.5024V6.19194H18.8538V5.54329Z" fill="#1A9A56"/>
<path d="M19.5024 5.54329H20.1511V6.19194H19.5024V5.54329Z" fill="#1A9A56"/>
<path d="M20.1511 5.54329H20.7997V6.19194H20.1511V5.54329Z" fill="#1A9A56"/>
<path d="M20.7997 5.54329H21.4484V6.19194H20.7997V5.54329Z" fill="#1A9A56"/>
<path d="M21.4484 5.54329H22.097V6.19194H21.4484V5.54329Z" fill="#1A9A56"/>
<path d="M22.097 5.54329H22.7457V6.19194H22.097V5.54329Z" fill="#1A9A56"/>
<path d="M22.7457 5.54329H23.3943V6.19194H22.7457V5.54329Z" fill="#1A9A56"/>
<path d="M12.3673 6.19194H13.0159V6.84059H12.3673V6.19194Z" fill="#1A9A56"/>
<path d="M13.0159 6.19194L13.6646 6.19194L13.6646 6.84059H13.0159V6.19194Z" fill="#1A9A56"/>
<path d="M13.6646 6.19194H14.3132V6.84059H13.6646L13.6646 6.19194Z" fill="#1A9A56"/>
<path d="M14.3132 6.19194H14.9619V6.84059H14.3132V6.19194Z" fill="#1A9A56"/>
<path d="M14.9619 6.19194H15.6105V6.84059H14.9619V6.19194Z" fill="#1A9A56"/>
<path d="M15.6105 6.19194H16.2592V6.84059H15.6105V6.19194Z" fill="#1A9A56"/>
<path d="M16.2592 6.19194H16.9078V6.84059H16.2592V6.19194Z" fill="#1A9A56"/>
<path d="M16.9078 6.19194H17.5565V6.84059H16.9078V6.19194Z" fill="#1A9A56"/>
<path d="M17.5565 6.19194H18.2051V6.84059H17.5565V6.19194Z" fill="#1A9A56"/>
<path d="M18.2051 6.19194H18.8538V6.84059H18.2051V6.19194Z" fill="#1A9A56"/>
<path d="M18.8538 6.19194H19.5024V6.84059H18.8538V6.19194Z" fill="#1A9A56"/>
<path d="M19.5024 6.19194H20.1511V6.84059H19.5024V6.19194Z" fill="#1A9A56"/>
<path d="M20.1511 6.19194H20.7997V6.84059H20.1511V6.19194Z" fill="#1A9A56"/>
<path d="M20.7997 6.19194H21.4484V6.84059H20.7997V6.19194Z" fill="#1A9A56"/>
<path d="M21.4484 6.19194H22.097V6.84059H21.4484V6.19194Z" fill="#1A9A56"/>
<path d="M22.097 6.19194H22.7457V6.84059H22.097V6.19194Z" fill="#1A9A56"/>
<path d="M22.7457 6.19194H23.3943V6.84059H22.7457V6.19194Z" fill="#1A9A56"/>
<path d="M11.07 6.84059H11.7186V7.48924H11.07V6.84059Z" fill="#1A9A56"/>
<path d="M11.7186 6.84059L12.3673 6.84059L12.3673 7.48924H11.7186V6.84059Z" fill="#1A9A56"/>
<path d="M12.3673 6.84059H13.0159V7.48924H12.3673L12.3673 6.84059Z" fill="#1A9A56"/>
<path d="M13.0159 6.84059H13.6646V7.48924H13.0159V6.84059Z" fill="#1A9A56"/>
<path d="M13.6646 6.84059H14.3132V7.48924H13.6646V6.84059Z" fill="#1A9A56"/>
<path d="M14.3132 6.84059H14.9619V7.48924H14.3132V6.84059Z" fill="#1A9A56"/>
<path d="M14.9619 6.84059H15.6105V7.48924H14.9619V6.84059Z" fill="#1A9A56"/>
<path d="M15.6105 6.84059H16.2592V7.48924H15.6105V6.84059Z" fill="#1A9A56"/>
<path d="M16.2592 6.84059H16.9078V7.48924H16.2592V6.84059Z" fill="#1A9A56"/>
<path d="M16.9078 6.84059H17.5565V7.48924H16.9078V6.84059Z" fill="#1A9A56"/>
<path d="M17.5565 6.84059H18.2051V7.48924H17.5565V6.84059Z" fill="#1A9A56"/>
<path d="M18.2051 6.84059H18.8538V7.48924H18.2051V6.84059Z" fill="#1A9A56"/>
<path d="M18.8538 6.84059H19.5024V7.48924H18.8538V6.84059Z" fill="#1A9A56"/>
<path d="M19.5024 6.84059H20.1511V7.48924H19.5024V6.84059Z" fill="#1A9A56"/>
<path d="M20.1511 6.84059H20.7997V7.48924H20.1511V6.84059Z" fill="#1A9A56"/>
<path d="M20.7997 6.84059H21.4484V7.48924H20.7997V6.84059Z" fill="#1A9A56"/>
<path d="M21.4484 6.84059H22.097V7.48924H21.4484V6.84059Z" fill="#1A9A56"/>
<path d="M22.097 6.84059H22.7457V7.48924H22.097V6.84059Z" fill="#1A9A56"/>
<path d="M22.7457 6.84059H23.3943V7.48924H22.7457V6.84059Z" fill="#1A9A56"/>
<path d="M9.12405 7.48924H9.7727V8.13789H9.12405V7.48924Z" fill="#1A9A56"/>
<path d="M9.7727 7.48924H10.4213V8.13789H9.7727V7.48924Z" fill="#1A9A56"/>
<path d="M10.4213 7.48924L11.07 7.48924L11.07 8.13789H10.4213V7.48924Z" fill="#1A9A56"/>
<path d="M11.07 7.48924H11.7186V8.13789H11.07L11.07 7.48924Z" fill="#1A9A56"/>
<path d="M11.7186 7.48924H12.3673V8.13789H11.7186V7.48924Z" fill="#1A9A56"/>
<path d="M12.3673 7.48924H13.0159V8.13789H12.3673V7.48924Z" fill="#1A9A56"/>
<path d="M13.0159 7.48924H13.6646V8.13789H13.0159V7.48924Z" fill="#1A9A56"/>
<path d="M13.6646 7.48924H14.3132V8.13789H13.6646V7.48924Z" fill="#1A9A56"/>
<path d="M14.3132 7.48924H14.9619V8.13789H14.3132V7.48924Z" fill="#1A9A56"/>
<path d="M14.9619 7.48924H15.6105V8.13789H14.9619V7.48924Z" fill="#1A9A56"/>
<path d="M15.6105 7.48924H16.2592V8.13789H15.6105V7.48924Z" fill="#1A9A56"/>
<path d="M16.2592 7.48924H16.9078V8.13789H16.2592V7.48924Z" fill="#1A9A56"/>
<path d="M18.2051 7.48924H18.8538V8.13789H18.2051V7.48924Z" fill="#1A9A56"/>
<path d="M18.8538 7.48924H19.5024V8.13789H18.8538V7.48924Z" fill="#1A9A56"/>
<path d="M19.5024 7.48924H20.1511V8.13789H19.5024V7.48924Z" fill="#1A9A56"/>
<path d="M20.1511 7.48924H20.7997V8.13789H20.1511V7.48924Z" fill="#1A9A56"/>
<path d="M20.7997 7.48924H21.4484V8.13789H20.7997V7.48924Z" fill="#1A9A56"/>
<path d="M21.4484 7.48924H22.097V8.13789H21.4484V7.48924Z" fill="#1A9A56"/>
<path d="M22.097 7.48924H22.7457V8.13789H22.097V7.48924Z" fill="#1A9A56"/>
<path d="M22.7457 7.48924H23.3943V8.13789H22.7457V7.48924Z" fill="#1A9A56"/>
<path d="M7.82675 8.13789H8.4754V8.78654H7.82675V8.13789Z" fill="#1A9A56"/>
<path d="M8.4754 8.13789H9.12405L9.12405 8.78654H8.4754V8.13789Z" fill="#1A9A56"/>
<path d="M9.12405 8.13789H9.7727V8.78654H9.12405L9.12405 8.13789Z" fill="#1A9A56"/>
<path d="M9.7727 8.13789H10.4213V8.78654H9.7727V8.13789Z" fill="#1A9A56"/>
<path d="M10.4213 8.13789H11.07V8.78654H10.4213V8.13789Z" fill="#1A9A56"/>
<path d="M11.07 8.13789H11.7186V8.78654H11.07V8.13789Z" fill="#1A9A56"/>
<path d="M11.7186 8.13789H12.3673V8.78654H11.7186V8.13789Z" fill="#1A9A56"/>
<path d="M12.3673 8.13789H13.0159V8.78654H12.3673V8.13789Z" fill="#1A9A56"/>
<path d="M13.0159 8.13789H13.6646V8.78654H13.0159V8.13789Z" fill="#1A9A56"/>
<path d="M13.6646 8.13789H14.3132V8.78654H13.6646V8.13789Z" fill="#1A9A56"/>
<path d="M14.3132 8.13789H14.9619V8.78654H14.3132V8.13789Z" fill="#1A9A56"/>
<path d="M14.9619 8.13789H15.6105V8.78654H14.9619V8.13789Z" fill="#1A9A56"/>
<path d="M15.6105 8.13789H16.2592V8.78654H15.6105V8.13789Z" fill="#1A9A56"/>
<path d="M17.5565 8.13789H18.2051V8.78654H17.5565V8.13789Z" fill="#1A9A56"/>
<path d="M18.2051 8.13789H18.8538V8.78654H18.2051V8.13789Z" fill="#1A9A56"/>
<path d="M18.8538 8.13789H19.5024V8.78654H18.8538V8.13789Z" fill="#1A9A56"/>
<path d="M19.5024 8.13789H20.1511V8.78654H19.5024V8.13789Z" fill="#1A9A56"/>
<path d="M20.1511 8.13789H20.7997V8.78654H20.1511V8.13789Z" fill="#1A9A56"/>
<path d="M20.7997 8.13789H21.4484V8.78654H20.7997V8.13789Z" fill="#1A9A56"/>
<path d="M21.4484 8.13789H22.097V8.78654H21.4484V8.13789Z" fill="#1A9A56"/>
<path d="M22.097 8.13789H22.7457V8.78654H22.097V8.13789Z" fill="#1A9A56"/>
<path d="M22.7457 8.13789H23.3943V8.78654H22.7457V8.13789Z" fill="#1A9A56"/>
<path d="M6.52946 8.78654H7.1781V9.43518H6.52946V8.78654Z" fill="#1A9A56"/>
<path d="M7.1781 8.78654H7.82675V9.43518H7.1781V8.78654Z" fill="#1A9A56"/>
<path d="M7.82675 8.78654H8.4754V9.43518H7.82675V8.78654Z" fill="#1A9A56"/>
<path d="M8.4754 8.78654H9.12405V9.43518H8.4754V8.78654Z" fill="#1A9A56"/>
<path d="M9.12405 8.78654H9.7727V9.43518H9.12405V8.78654Z" fill="#1A9A56"/>
<path d="M9.7727 8.78654H10.4213V9.43518H9.7727V8.78654Z" fill="#1A9A56"/>
<path d="M10.4213 8.78654H11.07V9.43518H10.4213V8.78654Z" fill="#1A9A56"/>
<path d="M11.07 8.78654H11.7186V9.43518H11.07V8.78654Z" fill="#1A9A56"/>
<path d="M11.7186 8.78654H12.3673V9.43518H11.7186V8.78654Z" fill="#1A9A56"/>
<path d="M12.3673 8.78654H13.0159V9.43518H12.3673V8.78654Z" fill="#1A9A56"/>
<path d="M13.0159 8.78654H13.6646V9.43518H13.0159V8.78654Z" fill="#1A9A56"/>
<path d="M13.6646 8.78654H14.3132V9.43518H13.6646V8.78654Z" fill="#1A9A56"/>
<path d="M14.3132 8.78654H14.9619V9.43518H14.3132V8.78654Z" fill="#1A9A56"/>
<path d="M16.9078 8.78654H17.5565V9.43518H16.9078V8.78654Z" fill="#1A9A56"/>
<path d="M17.5565 8.78654H18.2051V9.43518H17.5565V8.78654Z" fill="#1A9A56"/>
<path d="M18.2051 8.78654H18.8538V9.43518H18.2051V8.78654Z" fill="#1A9A56"/>
<path d="M18.8538 8.78654H19.5024V9.43518H18.8538V8.78654Z" fill="#1A9A56"/>
<path d="M19.5024 8.78654H20.1511V9.43518H19.5024V8.78654Z" fill="#1A9A56"/>
<path d="M20.1511 8.78654H20.7997V9.43518H20.1511V8.78654Z" fill="#1A9A56"/>
<path d="M20.7997 8.78654H21.4484V9.43518H20.7997V8.78654Z" fill="#1A9A56"/>
<path d="M21.4484 8.78654H22.097V9.43518H21.4484V8.78654Z" fill="#1A9A56"/>
<path d="M22.097 8.78654H22.7457V9.43518H22.097V8.78654Z" fill="#1A9A56"/>
<path d="M22.7457 8.78654H23.3943V9.43518H22.7457V8.78654Z" fill="#1A9A56"/>
<path d="M4.58351 9.43518H5.23216V10.0838H4.58351V9.43518Z" fill="#1A9A56"/>
<path d="M5.23216 9.43518H5.88081V10.0838H5.23216V9.43518Z" fill="#1A9A56"/>
<path d="M5.88081 9.43518H6.52946V10.0838H5.88081V9.43518Z" fill="#1A9A56"/>
<path d="M6.52946 9.43518H7.1781V10.0838H6.52946V9.43518Z" fill="#1A9A56"/>
<path d="M7.1781 9.43518H7.82675V10.0838H7.1781V9.43518Z" fill="#1A9A56"/>
<path d="M7.82675 9.43518H8.4754V10.0838H7.82675V9.43518Z" fill="#1A9A56"/>
<path d="M8.4754 9.43518H9.12405V10.0838H8.4754V9.43518Z" fill="#1A9A56"/>
<path d="M9.12405 9.43518H9.7727V10.0838H9.12405V9.43518Z" fill="#1A9A56"/>
<path d="M9.7727 9.43518H10.4213V10.0838H9.7727V9.43518Z" fill="#1A9A56"/>
<path d="M10.4213 9.43518H11.07V10.0838H10.4213V9.43518Z" fill="#1A9A56"/>
<path d="M11.07 9.43518H11.7186V10.0838H11.07V9.43518Z" fill="#1A9A56"/>
<path d="M11.7186 9.43518H12.3673V10.0838H11.7186V9.43518Z" fill="#1A9A56"/>
<path d="M12.3673 9.43518H13.0159V10.0838H12.3673V9.43518Z" fill="#1A9A56"/>
<path d="M13.0159 9.43518H13.6646V10.0838H13.0159V9.43518Z" fill="#1A9A56"/>
<path d="M13.6646 9.43518H14.3132V10.0838H13.6646V9.43518Z" fill="#1A9A56"/>
<path d="M16.2592 9.43518H16.9078L16.9078 10.0838H16.2592V9.43518Z" fill="#1A9A56"/>
<path d="M16.9078 9.43518H17.5565V10.0838H16.9078L16.9078 9.43518Z" fill="#1A9A56"/>
<path d="M17.5565 9.43518H18.2051V10.0838H17.5565V9.43518Z" fill="#1A9A56"/>
<path d="M18.2051 9.43518H18.8538V10.0838H18.2051V9.43518Z" fill="#1A9A56"/>
<path d="M18.8538 9.43518H19.5024V10.0838H18.8538V9.43518Z" fill="#1A9A56"/>
<path d="M19.5024 9.43518H20.1511V10.0838H19.5024V9.43518Z" fill="#1A9A56"/>
<path d="M20.1511 9.43518H20.7997V10.0838H20.1511V9.43518Z" fill="#1A9A56"/>
<path d="M20.7997 9.43518H21.4484V10.0838H20.7997V9.43518Z" fill="#1A9A56"/>
<path d="M21.4484 9.43518H22.097V10.0838H21.4484V9.43518Z" fill="#1A9A56"/>
<path d="M22.097 9.43518H22.7457V10.0838H22.097V9.43518Z" fill="#1A9A56"/>
<path d="M22.7457 9.43518H23.3943V10.0838H22.7457V9.43518Z" fill="#1A9A56"/>
<path d="M3.28621 10.0838H3.93486V10.7325H3.28621V10.0838Z" fill="#1A9A56"/>
<path d="M3.93486 10.0838H4.58351V10.7325H3.93486V10.0838Z" fill="#1A9A56"/>
<path d="M4.58351 10.0838H5.23216V10.7325H4.58351V10.0838Z" fill="#1A9A56"/>
<path d="M5.23216 10.0838H5.88081V10.7325H5.23216V10.0838Z" fill="#1A9A56"/>
<path d="M5.88081 10.0838H6.52946V10.7325H5.88081V10.0838Z" fill="#1A9A56"/>
<path d="M6.52946 10.0838H7.1781V10.7325H6.52946V10.0838Z" fill="#1A9A56"/>
<path d="M7.1781 10.0838H7.82675V10.7325H7.1781V10.0838Z" fill="#1A9A56"/>
<path d="M7.82675 10.0838H8.4754V10.7325H7.82675V10.0838Z" fill="#1A9A56"/>
<path d="M8.4754 10.0838H9.12405V10.7325H8.4754V10.0838Z" fill="#1A9A56"/>
<path d="M9.12405 10.0838H9.7727V10.7325H9.12405V10.0838Z" fill="#1A9A56"/>
<path d="M9.7727 10.0838H10.4213V10.7325H9.7727V10.0838Z" fill="#1A9A56"/>
<path d="M10.4213 10.0838H11.07V10.7325H10.4213V10.0838Z" fill="#1A9A56"/>
<path d="M11.07 10.0838H11.7186V10.7325H11.07V10.0838Z" fill="#1A9A56"/>
<path d="M11.7186 10.0838H12.3673V10.7325H11.7186V10.0838Z" fill="#1A9A56"/>
<path d="M12.3673 10.0838H13.0159V10.7325H12.3673V10.0838Z" fill="#1A9A56"/>
<path d="M15.6105 10.0838H16.2592V10.7325H15.6105V10.0838Z" fill="#1A9A56"/>
<path d="M16.2592 10.0838H16.9078V10.7325H16.2592V10.0838Z" fill="#1A9A56"/>
<path d="M16.9078 10.0838H17.5565V10.7325H16.9078V10.0838Z" fill="#1A9A56"/>
<path d="M17.5565 10.0838H18.2051V10.7325H17.5565V10.0838Z" fill="#1A9A56"/>
<path d="M18.2051 10.0838H18.8538V10.7325H18.2051V10.0838Z" fill="#1A9A56"/>
<path d="M18.8538 10.0838H19.5024V10.7325H18.8538V10.0838Z" fill="#1A9A56"/>
<path d="M19.5024 10.0838H20.1511V10.7325H19.5024V10.0838Z" fill="#1A9A56"/>
<path d="M20.1511 10.0838H20.7997V10.7325H20.1511V10.0838Z" fill="#1A9A56"/>
<path d="M20.7997 10.0838H21.4484V10.7325H20.7997V10.0838Z" fill="#1A9A56"/>
<path d="M21.4484 10.0838H22.097V10.7325H21.4484V10.0838Z" fill="#1A9A56"/>
<path d="M22.097 10.0838H22.7457V10.7325H22.097V10.0838Z" fill="#1A9A56"/>
<path d="M1.98891 10.7325H2.63756V11.3811H1.98891V10.7325Z" fill="#1A9A56"/>
<path d="M2.63756 10.7325H3.28621V11.3811H2.63756V10.7325Z" fill="#1A9A56"/>
<path d="M3.28621 10.7325H3.93486V11.3811H3.28621V10.7325Z" fill="#1A9A56"/>
<path d="M3.93486 10.7325H4.58351V11.3811H3.93486V10.7325Z" fill="#1A9A56"/>
<path d="M4.58351 10.7325H5.23216V11.3811H4.58351V10.7325Z" fill="#1A9A56"/>
<path d="M5.23216 10.7325H5.88081V11.3811H5.23216V10.7325Z" fill="#1A9A56"/>
<path d="M5.88081 10.7325H6.52946V11.3811H5.88081V10.7325Z" fill="#1A9A56"/>
<path d="M6.52946 10.7325H7.1781V11.3811H6.52946V10.7325Z" fill="#1A9A56"/>
<path d="M7.1781 10.7325H7.82675V11.3811H7.1781V10.7325Z" fill="#1A9A56"/>
<path d="M7.82675 10.7325H8.4754V11.3811H7.82675V10.7325Z" fill="#1A9A56"/>
<path d="M8.4754 10.7325H9.12405V11.3811H8.4754V10.7325Z" fill="#1A9A56"/>
<path d="M9.12405 10.7325H9.7727V11.3811H9.12405V10.7325Z" fill="#1A9A56"/>
<path d="M9.7727 10.7325H10.4213V11.3811H9.7727V10.7325Z" fill="#1A9A56"/>
<path d="M10.4213 10.7325H11.07V11.3811H10.4213V10.7325Z" fill="#1A9A56"/>
<path d="M11.07 10.7325H11.7186V11.3811H11.07V10.7325Z" fill="#1A9A56"/>
<path d="M11.7186 10.7325H12.3673V11.3811H11.7186V10.7325Z" fill="#1A9A56"/>
<path d="M14.9619 10.7325H15.6105L15.6105 11.3811H14.9619V10.7325Z" fill="#1A9A56"/>
<path d="M15.6105 10.7325H16.2592V11.3811H15.6105L15.6105 10.7325Z" fill="#1A9A56"/>
<path d="M16.2592 10.7325H16.9078V11.3811H16.2592V10.7325Z" fill="#1A9A56"/>
<path d="M16.9078 10.7325H17.5565V11.3811H16.9078V10.7325Z" fill="#1A9A56"/>
<path d="M17.5565 10.7325H18.2051V11.3811H17.5565V10.7325Z" fill="#1A9A56"/>
<path d="M18.2051 10.7325H18.8538V11.3811H18.2051V10.7325Z" fill="#1A9A56"/>
<path d="M18.8538 10.7325H19.5024V11.3811H18.8538V10.7325Z" fill="#1A9A56"/>
<path d="M19.5024 10.7325H20.1511V11.3811H19.5024V10.7325Z" fill="#1A9A56"/>
<path d="M20.1511 10.7325H20.7997V11.3811H20.1511V10.7325Z" fill="#1A9A56"/>
<path d="M20.7997 10.7325H21.4484V11.3811H20.7997V10.7325Z" fill="#1A9A56"/>
<path d="M21.4484 10.7325H22.097V11.3811H21.4484V10.7325Z" fill="#1A9A56"/>
<path d="M22.097 10.7325H22.7457V11.3811H22.097V10.7325Z" fill="#1A9A56"/>
<path d="M0.691617 11.3811H1.34027V12.0298H0.691617V11.3811Z" fill="#1A9A56"/>
<path d="M1.34027 11.3811L1.98891 11.3811L1.98891 12.0298H1.34027V11.3811Z" fill="#1A9A56"/>
<path d="M1.98891 11.3811H2.63756V12.0298H1.98891L1.98891 11.3811Z" fill="#1A9A56"/>
<path d="M2.63756 11.3811H3.28621V12.0298H2.63756V11.3811Z" fill="#1A9A56"/>
<path d="M3.28621 11.3811H3.93486V12.0298H3.28621V11.3811Z" fill="#1A9A56"/>
<path d="M3.93486 11.3811H4.58351V12.0298H3.93486V11.3811Z" fill="#1A9A56"/>
<path d="M4.58351 11.3811H5.23216V12.0298H4.58351V11.3811Z" fill="#1A9A56"/>
<path d="M5.23216 11.3811H5.88081V12.0298H5.23216V11.3811Z" fill="#1A9A56"/>
<path d="M5.88081 11.3811H6.52946V12.0298H5.88081V11.3811Z" fill="#1A9A56"/>
<path d="M6.52946 11.3811H7.1781V12.0298H6.52946V11.3811Z" fill="#1A9A56"/>
<path d="M7.1781 11.3811H7.82675V12.0298H7.1781V11.3811Z" fill="#1A9A56"/>
<path d="M7.82675 11.3811H8.4754V12.0298H7.82675V11.3811Z" fill="#1A9A56"/>
<path d="M8.4754 11.3811H9.12405V12.0298H8.4754V11.3811Z" fill="#1A9A56"/>
<path d="M9.12405 11.3811H9.7727V12.0298H9.12405V11.3811Z" fill="#1A9A56"/>
<path d="M9.7727 11.3811H10.4213V12.0298H9.7727V11.3811Z" fill="#1A9A56"/>
<path d="M10.4213 11.3811H11.07V12.0298H10.4213V11.3811Z" fill="#1A9A56"/>
<path d="M14.3132 11.3811L14.9619 11.3811V12.0298H14.3132V11.3811Z" fill="#1A9A56"/>
<path d="M14.9619 11.3811H15.6105V12.0298H14.9619V11.3811Z" fill="#1A9A56"/>
<path d="M15.6105 11.3811H16.2592V12.0298H15.6105V11.3811Z" fill="#1A9A56"/>
<path d="M16.2592 11.3811H16.9078V12.0298H16.2592V11.3811Z" fill="#1A9A56"/>
<path d="M16.9078 11.3811H17.5565V12.0298H16.9078V11.3811Z" fill="#1A9A56"/>
<path d="M17.5565 11.3811H18.2051V12.0298H17.5565V11.3811Z" fill="#1A9A56"/>
<path d="M18.2051 11.3811H18.8538V12.0298H18.2051V11.3811Z" fill="#1A9A56"/>
<path d="M18.8538 11.3811H19.5024V12.0298H18.8538V11.3811Z" fill="#1A9A56"/>
<path d="M19.5024 11.3811H20.1511V12.0298H19.5024V11.3811Z" fill="#1A9A56"/>
<path d="M20.1511 11.3811H20.7997V12.0298H20.1511V11.3811Z" fill="#1A9A56"/>
<path d="M20.7997 11.3811H21.4484V12.0298H20.7997V11.3811Z" fill="#1A9A56"/>
<path d="M21.4484 11.3811H22.097V12.0298H21.4484V11.3811Z" fill="#1A9A56"/>
<path d="M22.097 11.3811H22.7457V12.0298H22.097V11.3811Z" fill="#1A9A56"/>
<path d="M0.0429688 12.0298H0.691617V12.6784H0.0429688V12.0298Z" fill="#1A9A56"/>
<path d="M0.691617 12.0298H1.34027V12.6784H0.691617V12.0298Z" fill="#1A9A56"/>
<path d="M1.34027 12.0298H1.98891V12.6784H1.34027V12.0298Z" fill="#1A9A56"/>
<path d="M1.98891 12.0298H2.63756V12.6784H1.98891V12.0298Z" fill="#1A9A56"/>
<path d="M2.63756 12.0298H3.28621V12.6784H2.63756V12.0298Z" fill="#1A9A56"/>
<path d="M3.28621 12.0298H3.93486V12.6784H3.28621V12.0298Z" fill="#1A9A56"/>
<path d="M3.93486 12.0298H4.58351V12.6784H3.93486V12.0298Z" fill="#1A9A56"/>
<path d="M4.58351 12.0298H5.23216V12.6784H4.58351V12.0298Z" fill="#1A9A56"/>
<path d="M5.23216 12.0298H5.88081V12.6784H5.23216V12.0298Z" fill="#1A9A56"/>
<path d="M5.88081 12.0298H6.52946V12.6784H5.88081V12.0298Z" fill="#1A9A56"/>
<path d="M6.52946 12.0298H7.1781V12.6784H6.52946V12.0298Z" fill="#1A9A56"/>
<path d="M7.1781 12.0298H7.82675V12.6784H7.1781V12.0298Z" fill="#1A9A56"/>
<path d="M7.82675 12.0298H8.4754V12.6784H7.82675V12.0298Z" fill="#1A9A56"/>
<path d="M8.4754 12.0298H9.12405V12.6784H8.4754V12.0298Z" fill="#1A9A56"/>
<path d="M9.12405 12.0298H9.7727V12.6784H9.12405V12.0298Z" fill="#1A9A56"/>
<path d="M9.7727 12.0298H10.4213V12.6784H9.7727V12.0298Z" fill="#1A9A56"/>
<path d="M13.6646 12.0298H14.3132V12.6784H13.6646V12.0298Z" fill="#1A9A56"/>
<path d="M14.3132 12.0298H14.9619V12.6784H14.3132V12.0298Z" fill="#1A9A56"/>
<path d="M14.9619 12.0298H15.6105V12.6784H14.9619V12.0298Z" fill="#1A9A56"/>
<path d="M15.6105 12.0298H16.2592V12.6784H15.6105V12.0298Z" fill="#1A9A56"/>
<path d="M16.2592 12.0298H16.9078V12.6784H16.2592V12.0298Z" fill="#1A9A56"/>
<path d="M16.9078 12.0298H17.5565V12.6784H16.9078V12.0298Z" fill="#1A9A56"/>
<path d="M17.5565 12.0298H18.2051V12.6784H17.5565V12.0298Z" fill="#1A9A56"/>
<path d="M18.2051 12.0298H18.8538V12.6784H18.2051V12.0298Z" fill="#1A9A56"/>
<path d="M18.8538 12.0298H19.5024V12.6784H18.8538V12.0298Z" fill="#1A9A56"/>
<path d="M19.5024 12.0298H20.1511V12.6784H19.5024V12.0298Z" fill="#1A9A56"/>
<path d="M20.1511 12.0298H20.7997V12.6784H20.1511V12.0298Z" fill="#1A9A56"/>
<path d="M20.7997 12.0298H21.4484V12.6784H20.7997V12.0298Z" fill="#1A9A56"/>
<path d="M21.4484 12.0298H22.097V12.6784H21.4484V12.0298Z" fill="#1A9A56"/>
<path d="M22.097 12.0298H22.7457V12.6784H22.097V12.0298Z" fill="#1A9A56"/>
<path d="M0.691617 12.6784H1.34027V13.3271H0.691617V12.6784Z" fill="#1A9A56"/>
<path d="M1.34027 12.6784H1.98891V13.3271H1.34027V12.6784Z" fill="#1A9A56"/>
<path d="M1.98891 12.6784H2.63756V13.3271H1.98891V12.6784Z" fill="#1A9A56"/>
<path d="M2.63756 12.6784H3.28621V13.3271H2.63756V12.6784Z" fill="#1A9A56"/>
<path d="M3.28621 12.6784H3.93486V13.3271H3.28621V12.6784Z" fill="#1A9A56"/>
<path d="M3.93486 12.6784H4.58351V13.3271H3.93486V12.6784Z" fill="#1A9A56"/>
<path d="M4.58351 12.6784H5.23216V13.3271H4.58351V12.6784Z" fill="#1A9A56"/>
<path d="M5.23216 12.6784H5.88081V13.3271H5.23216V12.6784Z" fill="#1A9A56"/>
<path d="M5.88081 12.6784H6.52946V13.3271H5.88081V12.6784Z" fill="#1A9A56"/>
<path d="M6.52946 12.6784H7.1781V13.3271H6.52946V12.6784Z" fill="#1A9A56"/>
<path d="M7.1781 12.6784H7.82675V13.3271H7.1781V12.6784Z" fill="#1A9A56"/>
<path d="M7.82675 12.6784H8.4754V13.3271H7.82675V12.6784Z" fill="#1A9A56"/>
<path d="M8.4754 12.6784H9.12405V13.3271H8.4754V12.6784Z" fill="#1A9A56"/>
<path d="M13.0159 12.6784H13.6646L13.6646 13.3271H13.0159V12.6784Z" fill="#1A9A56"/>
<path d="M13.6646 12.6784H14.3132V13.3271H13.6646L13.6646 12.6784Z" fill="#1A9A56"/>
<path d="M14.3132 12.6784H14.9619V13.3271H14.3132V12.6784Z" fill="#1A9A56"/>
<path d="M14.9619 12.6784H15.6105V13.3271H14.9619V12.6784Z" fill="#1A9A56"/>
<path d="M15.6105 12.6784H16.2592V13.3271H15.6105V12.6784Z" fill="#1A9A56"/>
<path d="M16.2592 12.6784H16.9078V13.3271H16.2592V12.6784Z" fill="#1A9A56"/>
<path d="M16.9078 12.6784H17.5565V13.3271H16.9078V12.6784Z" fill="#1A9A56"/>
<path d="M17.5565 12.6784H18.2051V13.3271H17.5565V12.6784Z" fill="#1A9A56"/>
<path d="M18.2051 12.6784H18.8538V13.3271H18.2051V12.6784Z" fill="#1A9A56"/>
<path d="M18.8538 12.6784H19.5024V13.3271H18.8538V12.6784Z" fill="#1A9A56"/>
<path d="M19.5024 12.6784H20.1511V13.3271H19.5024V12.6784Z" fill="#1A9A56"/>
<path d="M20.1511 12.6784H20.7997V13.3271H20.1511V12.6784Z" fill="#1A9A56"/>
<path d="M20.7997 12.6784H21.4484V13.3271H20.7997V12.6784Z" fill="#1A9A56"/>
<path d="M21.4484 12.6784H22.097V13.3271H21.4484V12.6784Z" fill="#1A9A56"/>
<path d="M22.097 12.6784H22.7457V13.3271H22.097V12.6784Z" fill="#1A9A56"/>
<path d="M2.63756 13.3271H3.28621V13.9757H2.63756V13.3271Z" fill="#1A9A56"/>
<path d="M3.28621 13.3271H3.93486V13.9757H3.28621V13.3271Z" fill="#1A9A56"/>
<path d="M3.93486 13.3271H4.58351V13.9757H3.93486V13.3271Z" fill="#1A9A56"/>
<path d="M4.58351 13.3271H5.23216V13.9757H4.58351V13.3271Z" fill="#1A9A56"/>
<path d="M5.23216 13.3271H5.88081V13.9757H5.23216V13.3271Z" fill="#1A9A56"/>
<path d="M5.88081 13.3271H6.52946V13.9757H5.88081V13.3271Z" fill="#1A9A56"/>
<path d="M6.52946 13.3271H7.1781V13.9757H6.52946V13.3271Z" fill="#1A9A56"/>
<path d="M7.1781 13.3271H7.82675V13.9757H7.1781V13.3271Z" fill="#1A9A56"/>
<path d="M7.82675 13.3271H8.4754V13.9757H7.82675V13.3271Z" fill="#1A9A56"/>
<path d="M12.3673 13.3271L13.0159 13.3271V13.9757H12.3673V13.3271Z" fill="#1A9A56"/>
<path d="M13.0159 13.3271H13.6646V13.9757H13.0159V13.3271Z" fill="#1A9A56"/>
<path d="M13.6646 13.3271H14.3132V13.9757H13.6646V13.3271Z" fill="#1A9A56"/>
<path d="M14.3132 13.3271H14.9619V13.9757H14.3132V13.3271Z" fill="#1A9A56"/>
<path d="M14.9619 13.3271H15.6105V13.9757H14.9619V13.3271Z" fill="#1A9A56"/>
<path d="M15.6105 13.3271H16.2592V13.9757H15.6105V13.3271Z" fill="#1A9A56"/>
<path d="M16.2592 13.3271H16.9078V13.9757H16.2592V13.3271Z" fill="#1A9A56"/>
<path d="M16.9078 13.3271H17.5565V13.9757H16.9078V13.3271Z" fill="#1A9A56"/>
<path d="M17.5565 13.3271H18.2051V13.9757H17.5565V13.3271Z" fill="#1A9A56"/>
<path d="M18.2051 13.3271H18.8538V13.9757H18.2051V13.3271Z" fill="#1A9A56"/>
<path d="M18.8538 13.3271H19.5024V13.9757H18.8538V13.3271Z" fill="#1A9A56"/>
<path d="M19.5024 13.3271H20.1511V13.9757H19.5024V13.3271Z" fill="#1A9A56"/>
<path d="M20.1511 13.3271H20.7997V13.9757H20.1511V13.3271Z" fill="#1A9A56"/>
<path d="M20.7997 13.3271H21.4484V13.9757H20.7997V13.3271Z" fill="#1A9A56"/>
<path d="M21.4484 13.3271H22.097V13.9757H21.4484V13.3271Z" fill="#1A9A56"/>
<path d="M22.097 13.3271H22.7457V13.9757H22.097V13.3271Z" fill="#1A9A56"/>
<path d="M5.23216 13.9757H5.88081V14.6244H5.23216L5.23216 13.9757Z" fill="#1A9A56"/>
<path d="M5.88081 13.9757H6.52946V14.6244H5.88081V13.9757Z" fill="#1A9A56"/>
<path d="M6.52946 13.9757H7.1781V14.6244H6.52946V13.9757Z" fill="#1A9A56"/>
<path d="M11.7186 13.9757H12.3673L12.3673 14.6244H11.7186V13.9757Z" fill="#1A9A56"/>
<path d="M12.3673 13.9757H13.0159V14.6244H12.3673L12.3673 13.9757Z" fill="#1A9A56"/>
<path d="M13.0159 13.9757H13.6646V14.6244H13.0159V13.9757Z" fill="#1A9A56"/>
<path d="M13.6646 13.9757H14.3132V14.6244H13.6646V13.9757Z" fill="#1A9A56"/>
<path d="M14.3132 13.9757H14.9619V14.6244H14.3132V13.9757Z" fill="#1A9A56"/>
<path d="M14.9619 13.9757H15.6105V14.6244H14.9619V13.9757Z" fill="#1A9A56"/>
<path d="M15.6105 13.9757H16.2592V14.6244H15.6105V13.9757Z" fill="#1A9A56"/>
<path d="M16.2592 13.9757H16.9078V14.6244H16.2592V13.9757Z" fill="#1A9A56"/>
<path d="M16.9078 13.9757H17.5565V14.6244H16.9078V13.9757Z" fill="#1A9A56"/>
<path d="M17.5565 13.9757H18.2051V14.6244H17.5565V13.9757Z" fill="#1A9A56"/>
<path d="M18.2051 13.9757H18.8538V14.6244H18.2051V13.9757Z" fill="#1A9A56"/>
<path d="M18.8538 13.9757H19.5024V14.6244H18.8538V13.9757Z" fill="#1A9A56"/>
<path d="M19.5024 13.9757H20.1511V14.6244H19.5024V13.9757Z" fill="#1A9A56"/>
<path d="M20.1511 13.9757H20.7997V14.6244H20.1511V13.9757Z" fill="#1A9A56"/>
<path d="M20.7997 13.9757H21.4484V14.6244H20.7997V13.9757Z" fill="#1A9A56"/>
<path d="M21.4484 13.9757H22.097V14.6244H21.4484V13.9757Z" fill="#1A9A56"/>
<path d="M11.07 14.6244L11.7186 14.6244V15.273H11.07V14.6244Z" fill="#1A9A56"/>
<path d="M11.7186 14.6244H12.3673V15.273H11.7186V14.6244Z" fill="#1A9A56"/>
<path d="M12.3673 14.6244H13.0159V15.273H12.3673V14.6244Z" fill="#1A9A56"/>
<path d="M13.0159 14.6244H13.6646V15.273H13.0159V14.6244Z" fill="#1A9A56"/>
<path d="M13.6646 14.6244H14.3132V15.273H13.6646V14.6244Z" fill="#1A9A56"/>
<path d="M14.3132 14.6244H14.9619V15.273H14.3132V14.6244Z" fill="#1A9A56"/>
<path d="M14.9619 14.6244H15.6105V15.273H14.9619V14.6244Z" fill="#1A9A56"/>
<path d="M15.6105 14.6244H16.2592V15.273H15.6105V14.6244Z" fill="#1A9A56"/>
<path d="M16.2592 14.6244H16.9078V15.273H16.2592V14.6244Z" fill="#1A9A56"/>
<path d="M16.9078 14.6244H17.5565V15.273H16.9078V14.6244Z" fill="#1A9A56"/>
<path d="M17.5565 14.6244H18.2051V15.273H17.5565V14.6244Z" fill="#1A9A56"/>
<path d="M18.2051 14.6244H18.8538V15.273H18.2051V14.6244Z" fill="#1A9A56"/>
<path d="M18.8538 14.6244H19.5024V15.273H18.8538V14.6244Z" fill="#1A9A56"/>
<path d="M19.5024 14.6244H20.1511V15.273H19.5024V14.6244Z" fill="#1A9A56"/>
<path d="M20.1511 14.6244H20.7997V15.273H20.1511V14.6244Z" fill="#1A9A56"/>
<path d="M20.7997 14.6244H21.4484V15.273H20.7997V14.6244Z" fill="#1A9A56"/>
<path d="M21.4484 14.6244H22.097V15.273H21.4484V14.6244Z" fill="#1A9A56"/>
<path d="M10.4213 15.273H11.07L11.07 15.9217H10.4213V15.273Z" fill="#1A9A56"/>
<path d="M11.07 15.273H11.7186V15.9217H11.07L11.07 15.273Z" fill="#1A9A56"/>
<path d="M11.7186 15.273H12.3673V15.9217H11.7186V15.273Z" fill="#1A9A56"/>
<path d="M12.3673 15.273H13.0159V15.9217H12.3673V15.273Z" fill="#1A9A56"/>
<path d="M13.0159 15.273H13.6646V15.9217H13.0159V15.273Z" fill="#1A9A56"/>
<path d="M13.6646 15.273H14.3132V15.9217H13.6646V15.273Z" fill="#1A9A56"/>
<path d="M14.3132 15.273H14.9619V15.9217H14.3132V15.273Z" fill="#1A9A56"/>
<path d="M14.9619 15.273H15.6105V15.9217H14.9619V15.273Z" fill="#1A9A56"/>
<path d="M15.6105 15.273H16.2592V15.9217H15.6105V15.273Z" fill="#1A9A56"/>
<path d="M16.2592 15.273H16.9078V15.9217H16.2592V15.273Z" fill="#1A9A56"/>
<path d="M16.9078 15.273H17.5565V15.9217H16.9078V15.273Z" fill="#1A9A56"/>
<path d="M17.5565 15.273H18.2051V15.9217H17.5565V15.273Z" fill="#1A9A56"/>
<path d="M18.2051 15.273H18.8538V15.9217H18.2051V15.273Z" fill="#1A9A56"/>
<path d="M18.8538 15.273H19.5024V15.9217H18.8538V15.273Z" fill="#1A9A56"/>
<path d="M19.5024 15.273H20.1511V15.9217H19.5024V15.273Z" fill="#1A9A56"/>
<path d="M20.1511 15.273H20.7997V15.9217H20.1511V15.273Z" fill="#1A9A56"/>
<path d="M20.7997 15.273H21.4484V15.9217H20.7997V15.273Z" fill="#1A9A56"/>
<path d="M21.4484 15.273H22.097V15.9217H21.4484V15.273Z" fill="#1A9A56"/>
<path d="M10.4213 15.9217H11.07V16.5703H10.4213V15.9217Z" fill="#1A9A56"/>
<path d="M11.07 15.9217H11.7186V16.5703H11.07V15.9217Z" fill="#1A9A56"/>
<path d="M11.7186 15.9217H12.3673V16.5703H11.7186V15.9217Z" fill="#1A9A56"/>
<path d="M12.3673 15.9217H13.0159V16.5703H12.3673V15.9217Z" fill="#1A9A56"/>
<path d="M13.0159 15.9217H13.6646V16.5703H13.0159V15.9217Z" fill="#1A9A56"/>
<path d="M13.6646 15.9217H14.3132V16.5703H13.6646V15.9217Z" fill="#1A9A56"/>
<path d="M14.3132 15.9217H14.9619V16.5703H14.3132V15.9217Z" fill="#1A9A56"/>
<path d="M14.9619 15.9217H15.6105V16.5703H14.9619V15.9217Z" fill="#1A9A56"/>
<path d="M15.6105 15.9217H16.2592V16.5703H15.6105V15.9217Z" fill="#1A9A56"/>
<path d="M16.2592 15.9217H16.9078V16.5703H16.2592V15.9217Z" fill="#1A9A56"/>
<path d="M16.9078 15.9217H17.5565V16.5703H16.9078V15.9217Z" fill="#1A9A56"/>
<path d="M17.5565 15.9217H18.2051V16.5703H17.5565V15.9217Z" fill="#1A9A56"/>
<path d="M18.2051 15.9217H18.8538V16.5703H18.2051V15.9217Z" fill="#1A9A56"/>
<path d="M18.8538 15.9217H19.5024V16.5703H18.8538V15.9217Z" fill="#1A9A56"/>
<path d="M19.5024 15.9217H20.1511V16.5703H19.5024V15.9217Z" fill="#1A9A56"/>
<path d="M20.1511 15.9217H20.7997V16.5703H20.1511V15.9217Z" fill="#1A9A56"/>
<path d="M20.7997 15.9217H21.4484V16.5703H20.7997V15.9217Z" fill="#1A9A56"/>
<path d="M21.4484 15.9217H22.097V16.5703H21.4484V15.9217Z" fill="#1A9A56"/>
<path d="M11.07 16.5703H11.7186V17.219H11.07L11.07 16.5703Z" fill="#1A9A56"/>
<path d="M11.7186 16.5703H12.3673V17.219H11.7186V16.5703Z" fill="#1A9A56"/>
<path d="M12.3673 16.5703H13.0159V17.219H12.3673V16.5703Z" fill="#1A9A56"/>
<path d="M13.0159 16.5703H13.6646V17.219H13.0159V16.5703Z" fill="#1A9A56"/>
<path d="M13.6646 16.5703H14.3132V17.219H13.6646V16.5703Z" fill="#1A9A56"/>
<path d="M14.3132 16.5703H14.9619V17.219H14.3132V16.5703Z" fill="#1A9A56"/>
<path d="M14.9619 16.5703H15.6105V17.219H14.9619V16.5703Z" fill="#1A9A56"/>
<path d="M15.6105 16.5703H16.2592V17.219H15.6105V16.5703Z" fill="#1A9A56"/>
<path d="M16.2592 16.5703H16.9078V17.219H16.2592V16.5703Z" fill="#1A9A56"/>
<path d="M16.9078 16.5703H17.5565V17.219H16.9078V16.5703Z" fill="#1A9A56"/>
<path d="M17.5565 16.5703H18.2051V17.219H17.5565V16.5703Z" fill="#1A9A56"/>
<path d="M18.2051 16.5703H18.8538V17.219H18.2051V16.5703Z" fill="#1A9A56"/>
<path d="M18.8538 16.5703H19.5024V17.219H18.8538V16.5703Z" fill="#1A9A56"/>
<path d="M19.5024 16.5703H20.1511V17.219H19.5024V16.5703Z" fill="#1A9A56"/>
<path d="M20.1511 16.5703H20.7997V17.219H20.1511V16.5703Z" fill="#1A9A56"/>
<path d="M20.7997 16.5703H21.4484V17.219H20.7997V16.5703Z" fill="#1A9A56"/>
<path d="M21.4484 16.5703H22.097V17.219H21.4484V16.5703Z" fill="#1A9A56"/>
<path d="M12.3673 17.219H13.0159V17.8676H12.3673L12.3673 17.219Z" fill="#1A9A56"/>
<path d="M13.0159 17.219H13.6646V17.8676H13.0159V17.219Z" fill="#1A9A56"/>
<path d="M13.6646 17.219H14.3132V17.8676H13.6646V17.219Z" fill="#1A9A56"/>
<path d="M14.3132 17.219H14.9619V17.8676H14.3132V17.219Z" fill="#1A9A56"/>
<path d="M14.9619 17.219H15.6105V17.8676H14.9619V17.219Z" fill="#1A9A56"/>
<path d="M15.6105 17.219H16.2592V17.8676H15.6105V17.219Z" fill="#1A9A56"/>
<path d="M16.2592 17.219H16.9078V17.8676H16.2592V17.219Z" fill="#1A9A56"/>
<path d="M16.9078 17.219H17.5565V17.8676H16.9078V17.219Z" fill="#1A9A56"/>
<path d="M17.5565 17.219H18.2051V17.8676H17.5565V17.219Z" fill="#1A9A56"/>
<path d="M18.2051 17.219H18.8538V17.8676H18.2051V17.219Z" fill="#1A9A56"/>
<path d="M18.8538 17.219H19.5024V17.8676H18.8538V17.219Z" fill="#1A9A56"/>
<path d="M19.5024 17.219H20.1511V17.8676H19.5024V17.219Z" fill="#1A9A56"/>
<path d="M20.1511 17.219H20.7997V17.8676H20.1511V17.219Z" fill="#1A9A56"/>
<path d="M20.7997 17.219H21.4484V17.8676H20.7997V17.219Z" fill="#1A9A56"/>
<path d="M21.4484 17.219H22.097V17.8676H21.4484V17.219Z" fill="#1A9A56"/>
<path d="M13.0159 17.8676H13.6646V18.5163H13.0159V17.8676Z" fill="#1A9A56"/>
<path d="M13.6646 17.8676H14.3132V18.5163H13.6646V17.8676Z" fill="#1A9A56"/>
<path d="M14.3132 17.8676H14.9619V18.5163H14.3132V17.8676Z" fill="#1A9A56"/>
<path d="M14.9619 17.8676H15.6105V18.5163H14.9619V17.8676Z" fill="#1A9A56"/>
<path d="M15.6105 17.8676H16.2592V18.5163H15.6105V17.8676Z" fill="#1A9A56"/>
<path d="M16.2592 17.8676H16.9078V18.5163H16.2592V17.8676Z" fill="#1A9A56"/>
<path d="M16.9078 17.8676H17.5565V18.5163H16.9078V17.8676Z" fill="#1A9A56"/>
<path d="M17.5565 17.8676H18.2051V18.5163H17.5565V17.8676Z" fill="#1A9A56"/>
<path d="M18.2051 17.8676H18.8538V18.5163H18.2051V17.8676Z" fill="#1A9A56"/>
<path d="M18.8538 17.8676H19.5024V18.5163H18.8538V17.8676Z" fill="#1A9A56"/>
<path d="M19.5024 17.8676H20.1511V18.5163H19.5024V17.8676Z" fill="#1A9A56"/>
<path d="M20.1511 17.8676H20.7997V18.5163H20.1511V17.8676Z" fill="#1A9A56"/>
<path d="M20.7997 17.8676H21.4484V18.5163H20.7997V17.8676Z" fill="#1A9A56"/>
<path d="M14.3132 18.5163H14.9619V19.1649H14.3132V18.5163Z" fill="#1A9A56"/>
<path d="M14.9619 18.5163H15.6105V19.1649H14.9619V18.5163Z" fill="#1A9A56"/>
<path d="M15.6105 18.5163H16.2592V19.1649H15.6105V18.5163Z" fill="#1A9A56"/>
<path d="M16.2592 18.5163H16.9078V19.1649H16.2592V18.5163Z" fill="#1A9A56"/>
<path d="M16.9078 18.5163H17.5565V19.1649H16.9078V18.5163Z" fill="#1A9A56"/>
<path d="M17.5565 18.5163H18.2051V19.1649H17.5565V18.5163Z" fill="#1A9A56"/>
<path d="M18.2051 18.5163H18.8538V19.1649H18.2051V18.5163Z" fill="#1A9A56"/>
<path d="M18.8538 18.5163H19.5024V19.1649H18.8538V18.5163Z" fill="#1A9A56"/>
<path d="M19.5024 18.5163H20.1511V19.1649H19.5024V18.5163Z" fill="#1A9A56"/>
<path d="M20.1511 18.5163H20.7997V19.1649H20.1511V18.5163Z" fill="#1A9A56"/>
<path d="M20.7997 18.5163H21.4484V19.1649H20.7997V18.5163Z" fill="#1A9A56"/>
<path d="M14.9619 19.1649H15.6105V19.8136H14.9619V19.1649Z" fill="#1A9A56"/>
<path d="M15.6105 19.1649H16.2592V19.8136H15.6105V19.1649Z" fill="#1A9A56"/>
<path d="M16.2592 19.1649H16.9078V19.8136H16.2592V19.1649Z" fill="#1A9A56"/>
<path d="M16.9078 19.1649H17.5565V19.8136H16.9078V19.1649Z" fill="#1A9A56"/>
<path d="M17.5565 19.1649H18.2051V19.8136H17.5565V19.1649Z" fill="#1A9A56"/>
<path d="M18.2051 19.1649H18.8538V19.8136H18.2051V19.1649Z" fill="#1A9A56"/>
<path d="M18.8538 19.1649H19.5024V19.8136H18.8538V19.1649Z" fill="#1A9A56"/>
<path d="M19.5024 19.1649H20.1511V19.8136H19.5024V19.1649Z" fill="#1A9A56"/>
<path d="M20.1511 19.1649H20.7997V19.8136H20.1511V19.1649Z" fill="#1A9A56"/>
<path d="M20.7997 19.1649H21.4484V19.8136H20.7997V19.1649Z" fill="#1A9A56"/>
<path d="M16.2592 19.8136H16.9078V20.4622H16.2592V19.8136Z" fill="#1A9A56"/>
<path d="M16.9078 19.8136H17.5565V20.4622H16.9078V19.8136Z" fill="#1A9A56"/>
<path d="M17.5565 19.8136H18.2051V20.4622H17.5565V19.8136Z" fill="#1A9A56"/>
<path d="M18.2051 19.8136H18.8538V20.4622H18.2051V19.8136Z" fill="#1A9A56"/>
<path d="M18.8538 19.8136H19.5024V20.4622H18.8538V19.8136Z" fill="#1A9A56"/>
<path d="M19.5024 19.8136H20.1511V20.4622H19.5024V19.8136Z" fill="#1A9A56"/>
<path d="M20.1511 19.8136H20.7997V20.4622H20.1511V19.8136Z" fill="#1A9A56"/>
<path d="M20.7997 19.8136H21.4484V20.4622H20.7997V19.8136Z" fill="#1A9A56"/>
<path d="M16.9078 20.4622H17.5565V21.1109H16.9078L16.9078 20.4622Z" fill="#1A9A56"/>
<path d="M17.5565 20.4622H18.2051V21.1109H17.5565V20.4622Z" fill="#1A9A56"/>
<path d="M18.2051 20.4622H18.8538V21.1109H18.2051V20.4622Z" fill="#1A9A56"/>
<path d="M18.8538 20.4622H19.5024V21.1109H18.8538V20.4622Z" fill="#1A9A56"/>
<path d="M19.5024 20.4622H20.1511V21.1109H19.5024V20.4622Z" fill="#1A9A56"/>
<path d="M20.1511 20.4622H20.7997V21.1109H20.1511V20.4622Z" fill="#1A9A56"/>
<path d="M20.7997 20.4622H21.4484V21.1109H20.7997V20.4622Z" fill="#1A9A56"/>
<path d="M18.2051 21.1109H18.8538V21.7595H18.2051V21.1109Z" fill="#1A9A56"/>
<path d="M18.8538 21.1109H19.5024V21.7595H18.8538V21.1109Z" fill="#1A9A56"/>
<path d="M19.5024 21.1109H20.1511V21.7595H19.5024V21.1109Z" fill="#1A9A56"/>
<path d="M20.1511 21.1109H20.7997V21.7595H20.1511V21.1109Z" fill="#1A9A56"/>
</g>
<defs>
<clipPath id="clip0_1198_2549">
<rect width="24" height="24" fill="white"/>
</clipPath>
</defs>
</svg>
