<svg width="4978" height="649" viewBox="0 0 4978 649" fill="none" xmlns="http://www.w3.org/2000/svg">
<path d="M364.428 645.183C563.718 644.174 724.863 562.142 724.356 461.958C723.848 361.774 561.881 281.376 362.591 282.384C163.302 283.392 2.15681 365.425 2.6641 465.609C3.1714 565.793 165.139 646.191 364.428 645.183Z" fill="black"/>
<path fill-rule="evenodd" clip-rule="evenodd" d="M108.912 339.178C44.0664 372.188 5.08115 417.047 5.32698 465.596C5.57281 514.145 45.0103 558.606 110.187 590.959C175.209 623.235 265.096 643.024 364.415 642.521C463.734 642.019 553.416 621.321 618.107 588.389C682.953 555.379 721.939 510.52 721.693 461.971C721.447 413.423 682.009 368.961 616.832 336.608C551.811 304.332 461.924 284.543 362.605 285.046C263.286 285.548 173.604 306.246 108.912 339.178ZM106.495 334.434C172.072 301.051 262.607 280.228 362.578 279.722C462.549 279.217 553.29 299.123 619.201 331.84C684.957 364.48 726.757 410.309 727.019 461.944C727.28 513.58 685.946 559.829 620.524 593.133C554.948 626.516 464.413 647.339 364.442 647.845C264.471 648.35 173.73 628.444 107.819 595.727C42.0625 563.087 0.262694 517.258 0.00123317 465.623C-0.260227 413.987 41.0733 367.738 106.495 334.434Z" fill="#7BFA99"/>
<path d="M361.478 635.668C528.148 634.825 662.918 566.416 662.495 482.873C662.072 399.33 526.616 332.288 359.946 333.132C193.276 333.975 58.5055 402.384 58.9285 485.927C59.3516 569.47 194.807 636.511 361.478 635.668Z" fill="black"/>
<path fill-rule="evenodd" clip-rule="evenodd" d="M152.806 390.383C99.7583 417.31 72.0705 451.824 72.2429 485.859C72.4152 519.895 100.451 554.127 153.768 580.515C206.298 606.514 279.699 622.773 361.41 622.359C443.121 621.946 516.354 604.945 568.618 578.416C621.665 551.49 649.353 516.976 649.181 482.94C649.008 448.905 620.972 414.673 567.655 388.285C515.125 362.286 441.724 346.027 360.013 346.441C278.302 346.854 205.07 363.855 152.806 390.383ZM140.749 366.65C197.432 337.878 274.919 320.253 359.878 319.823C444.838 319.393 522.5 336.233 579.471 364.43C635.655 392.238 675.559 433.298 675.809 482.806C676.06 532.314 636.574 573.775 580.675 602.15C523.992 630.922 446.504 648.547 361.545 648.977C276.586 649.407 198.924 632.566 141.952 604.369C85.7684 576.562 45.8649 535.502 45.6142 485.994C45.3635 436.486 84.8492 395.025 140.749 366.65Z" fill="#7BFA99"/>
<path d="M361.176 625.95C504.14 625.352 619.817 572.836 619.548 508.653C619.279 444.47 503.166 392.925 360.202 393.524C217.239 394.122 101.562 446.638 101.831 510.821C102.099 575.004 218.213 626.549 361.176 625.95Z" fill="black"/>
<path fill-rule="evenodd" clip-rule="evenodd" d="M182.81 440.446C136.874 461.3 115.046 487.187 115.145 510.765C115.244 534.344 137.288 560.046 183.397 580.515C228.245 600.424 291.072 612.935 361.121 612.641C431.169 612.348 493.889 599.312 538.569 579.028C584.505 558.174 606.333 532.287 606.234 508.709C606.135 485.131 584.091 459.428 537.982 438.959C493.134 419.05 430.306 406.539 360.258 406.833C290.21 407.126 227.489 420.162 182.81 440.446ZM171.798 416.211C220.631 394.041 287.231 380.52 360.147 380.215C433.062 379.91 499.773 392.872 548.79 414.632C596.546 435.832 632.692 467.993 632.863 508.597C633.033 549.202 597.157 581.665 549.58 603.263C500.747 625.433 434.148 638.954 361.232 639.259C288.317 639.564 221.606 626.602 172.589 604.842C124.833 583.642 88.6863 551.481 88.5161 510.877C88.3459 470.272 124.222 437.809 171.798 416.211Z" fill="#7BFA99"/>
<path d="M359.355 460.491C478.481 460.491 575.051 357.407 575.051 230.246C575.051 103.084 478.481 0 359.355 0C240.23 0 143.66 103.084 143.66 230.246C143.66 357.407 240.23 460.491 359.355 460.491Z" fill="black"/>
<path d="M360.297 415.247C472.068 414.72 562.249 323.723 561.722 211.999C561.195 100.275 470.16 10.1314 358.39 10.6579C246.619 11.1844 156.438 102.182 156.965 213.906C157.491 325.63 248.526 415.773 360.297 415.247Z" fill="#7BFA99"/>
<path d="M1300.4 407.2C1300.4 435.2 1290.6 458.6 1271 477.4C1251.8 495.8 1228.2 505 1200.2 505H961.996V310H1034V433H1200.2C1218.6 433 1227.8 424.4 1227.8 407.2V293.8C1227.8 276.6 1218.6 268 1200.2 268H961.996V196H1200.2C1228.2 196 1251.8 205.4 1271 224.2C1290.6 242.6 1300.4 265.8 1300.4 293.8V407.2Z" fill="#7BFA99"/>
<path d="M1709.15 505H1637.15V406.6H1447.55V334.6H1637.15V291.4C1637.15 275.8 1631.95 268 1621.55 268H1417.55C1407.55 268 1402.55 275.8 1402.55 291.4V505H1330.55V291.4C1330.55 265.4 1338.55 243 1354.55 224.2C1370.95 205.4 1391.95 196 1417.55 196H1621.55C1647.55 196 1668.55 205.4 1684.55 224.2C1700.95 243 1709.15 265.4 1709.15 291.4V505Z" fill="#7BFA99"/>
<path d="M2101.35 505H2002.95L1848.75 331.6H2034.15C2047.35 331.6 2053.95 321 2053.95 299.8C2053.95 278.6 2047.35 268 2034.15 268H1810.95V505H1738.95V196H2038.35C2065.95 196 2087.75 206.8 2103.75 228.4C2118.55 248 2125.95 271.8 2125.95 299.8C2125.95 327.8 2118.55 351.6 2103.75 371.2C2087.75 392.8 2065.95 403.6 2038.35 403.6H2010.75L2101.35 505Z" fill="#7BFA99"/>
<path d="M2518.54 505H2420.14L2265.94 350.8L2409.34 196H2507.74L2363.14 350.8L2518.54 505ZM2228.14 505H2156.14V196H2228.14V505Z" fill="#7BFA99"/>
<path d="M2839.55 505H2530.55V196H2602.55V433H2839.55V505Z" fill="#7BFA99"/>
<path d="M3248.41 505H3176.41V406.6H2986.81V334.6H3176.41V291.4C3176.41 275.8 3171.21 268 3160.81 268H2956.81C2946.81 268 2941.81 275.8 2941.81 291.4V505H2869.81V291.4C2869.81 265.4 2877.81 243 2893.81 224.2C2910.21 205.4 2931.21 196 2956.81 196H3160.81C3186.81 196 3207.81 205.4 3223.81 224.2C3240.21 243 3248.41 265.4 3248.41 291.4V505Z" fill="#7BFA99"/>
<path d="M3640.61 505H3542.21L3388.01 350.8L3531.41 196H3629.81L3485.21 350.8L3640.61 505ZM3350.21 505H3278.21V196H3350.21V505Z" fill="#7BFA99"/>
<path d="M3982.02 268H3724.62V314.2H3965.22V386.2H3724.62V433H3981.42V505H3652.62V196H3982.02V268Z" fill="#7BFA99"/>
<path d="M4351.5 415.219C4364.98 423.565 4371.72 436.298 4371.72 453.418C4371.72 465.83 4367.76 476.316 4359.84 484.876C4351.28 494.292 4339.73 499 4325.18 499H4165V333.685H4322.29C4336.84 333.685 4348.39 338.393 4356.95 347.809C4364.66 356.369 4368.51 366.855 4368.51 379.267C4368.51 394.675 4362.84 406.659 4351.5 415.219ZM4322.29 397.243C4327.85 397.243 4330.63 393.07 4330.63 384.724C4330.63 376.378 4327.85 372.205 4322.29 372.205H4203.52V397.243H4322.29ZM4325.18 460.48C4330.74 460.48 4333.52 456.307 4333.52 447.961C4333.52 439.615 4330.74 435.442 4325.18 435.442H4203.52V460.48H4325.18Z" fill="#48975C"/>
<path d="M4559.72 372.205H4422.01V396.922H4550.73V435.442H4422.01V460.48H4559.4V499H4383.49V333.685H4559.72V372.205Z" fill="#48975C"/>
<path d="M4758.62 372.205H4684.15V499H4645.63V372.205H4571.16V333.685H4758.62V372.205Z" fill="#48975C"/>
<path d="M4977.26 499H4938.74V446.356H4837.3V407.836H4938.74V384.724C4938.74 376.378 4935.96 372.205 4930.39 372.205H4821.25C4815.9 372.205 4813.23 376.378 4813.23 384.724V499H4774.71V384.724C4774.71 370.814 4778.99 358.83 4787.55 348.772C4796.32 338.714 4807.56 333.685 4821.25 333.685H4930.39C4944.3 333.685 4955.54 338.714 4964.1 348.772C4972.87 358.83 4977.26 370.814 4977.26 384.724V499Z" fill="#48975C"/>
</svg>
